<?xml version="1.0" encoding="UTF-8" standalone="no"?>
<svg viewBox="0 0 50 50"
 xmlns="http://www.w3.org/2000/svg" xmlns:xlink="http://www.w3.org/1999/xlink"  version="1.2" baseProfile="tiny">
<title>Qt SVG Document</title>
<desc>Generated with Qt</desc>
<defs>
</defs>
<g fill="none" stroke="black" stroke-width="1" fill-rule="evenodd" stroke-linecap="square" stroke-linejoin="bevel" >

<g fill="#000000" fill-opacity="1" stroke="none" transform="matrix(2.27273,0,0,2.27273,-52.2727,0)"
font-family="Noto Sans" font-size="10" font-weight="400" font-style="normal" 
opacity="0.001" >
<rect x="23" y="0" width="22" height="22"/>
</g>

<g fill="#ff8080" fill-opacity="1" stroke="none" transform="matrix(2.27273,0,0,2.27273,-52.2727,0)"
font-family="Noto Sans" font-size="10" font-weight="400" font-style="normal" 
>
<circle cx="34" cy="11" r="11"/>
</g>

<g fill="#ffffff" fill-opacity="1" stroke="none" transform="matrix(2.27273,0,0,2.27273,-52.2727,0)"
font-family="Noto Sans" font-size="10" font-weight="400" font-style="normal" 
>
<path vector-effect="none" fill-rule="nonzero" d="M38.596,6.4038 C38.4001,6.20793 38.0848,6.20793 37.8889,6.4038 L33.9998,10.2929 L30.1107,6.4038 C29.9148,6.20793 29.5994,6.20793 29.4036,6.4038 C29.2077,6.59967 29.2077,6.91504 29.4036,7.11091 L33.2927,11 L29.4036,14.8891 C29.2077,15.085 29.2077,15.4003 29.4036,15.5962 C29.5994,15.7921 29.9148,15.7921 30.1107,15.5962 L33.9998,11.7071 L37.8889,15.5962 C38.0848,15.7921 38.4001,15.7921 38.596,15.5962 C38.7919,15.4003 38.7919,15.085 38.596,14.8891 L34.7069,11 L38.596,7.11091 C38.7919,6.91504 38.7919,6.59967 38.596,6.4038 "/>
</g>

<g fill="none" stroke="#000000" stroke-opacity="1" stroke-width="1" stroke-linecap="square" stroke-linejoin="bevel" transform="matrix(1,0,0,1,0,0)"
font-family="Noto Sans" font-size="10" font-weight="400" font-style="normal" 
>
</g>
</g>
</svg>
