<?xml version="1.0" encoding="UTF-8" standalone="no"?>
<svg viewBox="0 0 50 50"
 xmlns="http://www.w3.org/2000/svg" xmlns:xlink="http://www.w3.org/1999/xlink"  version="1.2" baseProfile="tiny">
<title>Qt SVG Document</title>
<desc>Generated with Qt</desc>
<defs>
</defs>
<g fill="none" stroke="black" stroke-width="1" fill-rule="evenodd" stroke-linecap="square" stroke-linejoin="bevel" >

<g fill="#000000" fill-opacity="1" stroke="none" transform="matrix(2.27273,0,0,2.27273,0,0)"
font-family="Noto Sans" font-size="10" font-weight="400" font-style="normal" 
opacity="0.001" >
<rect x="0" y="0" width="22" height="22"/>
</g>

<g fill="#dedede" fill-opacity="1" stroke="none" transform="matrix(2.27273,0,0,2.27273,0,0)"
font-family="Noto Sans" font-size="10" font-weight="400" font-style="normal" 
>
<path vector-effect="none" fill-rule="nonzero" d="M15.596,6.4038 C15.4001,6.20793 15.0848,6.20793 14.8889,6.4038 L10.9998,10.2929 L7.11069,6.4038 C6.91482,6.20793 6.59945,6.20793 6.40358,6.4038 C6.20771,6.59967 6.20771,6.91504 6.40358,7.11091 L10.2927,11 L6.40358,14.8891 C6.20771,15.085 6.20771,15.4003 6.40358,15.5962 C6.59945,15.7921 6.91482,15.7921 7.11069,15.5962 L10.9998,11.7071 L14.8889,15.5962 C15.0848,15.7921 15.4001,15.7921 15.596,15.5962 C15.7919,15.4003 15.7919,15.085 15.596,14.8891 L11.7069,11 L15.596,7.11091 C15.7919,6.91504 15.7919,6.59967 15.596,6.4038 "/>
</g>

<g fill="none" stroke="#000000" stroke-opacity="1" stroke-width="1" stroke-linecap="square" stroke-linejoin="bevel" transform="matrix(1,0,0,1,0,0)"
font-family="Noto Sans" font-size="10" font-weight="400" font-style="normal" 
>
</g>
</g>
</svg>
