<?xml version="1.0" encoding="UTF-8" standalone="no"?>
<svg viewBox="0 0 50 50"
 xmlns="http://www.w3.org/2000/svg" xmlns:xlink="http://www.w3.org/1999/xlink"  version="1.2" baseProfile="tiny">
<title>Qt SVG Document</title>
<desc>Generated with Qt</desc>
<defs>
</defs>
<g fill="none" stroke="black" stroke-width="1" fill-rule="evenodd" stroke-linecap="square" stroke-linejoin="bevel" >

<g fill="#000000" fill-opacity="1" stroke="none" transform="matrix(2.27273,0,0,2.27273,-104.545,0)"
font-family="Noto Sans" font-size="10" font-weight="400" font-style="normal" 
opacity="0.001" >
<rect x="46" y="0" width="22" height="22"/>
</g>

<g fill="#d35f5f" fill-opacity="1" stroke="none" transform="matrix(2.27273,0,0,2.27273,-104.545,0)"
font-family="Noto Sans" font-size="10" font-weight="400" font-style="normal" 
>
<circle cx="57" cy="11" r="11"/>
</g>

<g fill="#ffffff" fill-opacity="1" stroke="none" transform="matrix(2.27273,0,0,2.27273,-104.545,0)"
font-family="Noto Sans" font-size="10" font-weight="400" font-style="normal" 
>
<path vector-effect="none" fill-rule="nonzero" d="M61.596,6.4038 C61.4001,6.20793 61.0848,6.20793 60.8889,6.4038 L56.9998,10.2929 L53.1107,6.4038 C52.9148,6.20793 52.5994,6.20793 52.4036,6.4038 C52.2077,6.59967 52.2077,6.91504 52.4036,7.11091 L56.2927,11 L52.4036,14.8891 C52.2077,15.085 52.2077,15.4003 52.4036,15.5962 C52.5994,15.7921 52.9148,15.7921 53.1107,15.5962 L56.9998,11.7071 L60.8889,15.5962 C61.0848,15.7921 61.4001,15.7921 61.596,15.5962 C61.7919,15.4003 61.7919,15.085 61.596,14.8891 L57.7069,11 L61.596,7.11091 C61.7919,6.91504 61.7919,6.59967 61.596,6.4038 "/>
</g>

<g fill="none" stroke="#000000" stroke-opacity="1" stroke-width="1" stroke-linecap="square" stroke-linejoin="bevel" transform="matrix(1,0,0,1,0,0)"
font-family="Noto Sans" font-size="10" font-weight="400" font-style="normal" 
>
</g>
</g>
</svg>
