<?xml version="1.0" encoding="UTF-8" standalone="no"?>
<svg viewBox="0 0 50 50"
 xmlns="http://www.w3.org/2000/svg" xmlns:xlink="http://www.w3.org/1999/xlink"  version="1.2" baseProfile="tiny">
<title>Qt SVG Document</title>
<desc>Generated with Qt</desc>
<defs>
</defs>
<g fill="none" stroke="black" stroke-width="1" fill-rule="evenodd" stroke-linecap="square" stroke-linejoin="bevel" >

<g fill="#000000" fill-opacity="1" stroke="none" transform="matrix(2.27273,0,0,2.27273,-52.2727,0)"
font-family="Noto Sans" font-size="10" font-weight="400" font-style="normal" 
opacity="0.001" >
<rect x="23" y="0" width="22" height="22"/>
</g>

<g fill="#ffffff" fill-opacity="1" stroke="none" transform="matrix(2.27273,0,0,2.27273,-52.2727,0)"
font-family="Noto Sans" font-size="10" font-weight="400" font-style="normal" 
opacity="0.25" >
<circle cx="34" cy="11" r="11"/>
</g>

<g fill="#dedede" fill-opacity="1" stroke="none" transform="matrix(2.27273,0,0,2.27273,-52.2727,0)"
font-family="Noto Sans" font-size="10" font-weight="400" font-style="normal" 
>
<path vector-effect="none" fill-rule="nonzero" d="M33,6 C32.2572,6 31.6126,6.40192 31.2676,7 L35,7 C36.662,7 38,8.338 38,10 L38,13.7324 C38.5981,13.3874 39,12.7428 39,12 L39,10 C39,7.784 37.216,6 35,6 L33,6 M31,8 C29.892,8 29,8.892 29,10 L29,14 C29,15.108 29.892,16 31,16 L35,16 C36.108,16 37,15.108 37,14 L37,10 C37,8.892 36.108,8 35,8 L31,8 M31,9 L35,9 C35.554,9 36,9.446 36,10 L36,14 C36,14.554 35.554,15 35,15 L31,15 C30.446,15 30,14.554 30,14 L30,10 C30,9.446 30.446,9 31,9 "/>
</g>

<g fill="none" stroke="#000000" stroke-opacity="1" stroke-width="1" stroke-linecap="square" stroke-linejoin="bevel" transform="matrix(1,0,0,1,0,0)"
font-family="Noto Sans" font-size="10" font-weight="400" font-style="normal" 
>
</g>
</g>
</svg>
