<?xml version="1.0" encoding="UTF-8" standalone="no"?>
<svg viewBox="0 0 50 50"
 xmlns="http://www.w3.org/2000/svg" xmlns:xlink="http://www.w3.org/1999/xlink"  version="1.2" baseProfile="tiny">
<title>Qt SVG Document</title>
<desc>Generated with Qt</desc>
<defs>
</defs>
<g fill="none" stroke="black" stroke-width="1" fill-rule="evenodd" stroke-linecap="square" stroke-linejoin="bevel" >

<g fill="#000000" fill-opacity="1" stroke="none" transform="matrix(2.27273,0,0,2.27273,0,0)"
font-family="Noto Sans" font-size="10" font-weight="400" font-style="normal" 
opacity="0.001" >
<rect x="0" y="0" width="22" height="22"/>
</g>

<g fill="#dedede" fill-opacity="1" stroke="none" transform="matrix(2.27273,0,0,2.27273,0,0)"
font-family="Noto Sans" font-size="10" font-weight="400" font-style="normal" 
>
<path vector-effect="none" fill-rule="nonzero" d="M10,6 C9.25722,6 8.6126,6.40192 8.2676,7 L12,7 C13.662,7 15,8.338 15,10 L15,13.7324 C15.5981,13.3874 16,12.7428 16,12 L16,10 C16,7.784 14.216,6 12,6 L10,6 M8,8 C6.892,8 6,8.892 6,10 L6,14 C6,15.108 6.892,16 8,16 L12,16 C13.108,16 14,15.108 14,14 L14,10 C14,8.892 13.108,8 12,8 L8,8 M8,9 L12,9 C12.554,9 13,9.446 13,10 L13,14 C13,14.554 12.554,15 12,15 L8,15 C7.446,15 7,14.554 7,14 L7,10 C7,9.446 7.446,9 8,9 "/>
</g>

<g fill="none" stroke="#000000" stroke-opacity="1" stroke-width="1" stroke-linecap="square" stroke-linejoin="bevel" transform="matrix(1,0,0,1,0,0)"
font-family="Noto Sans" font-size="10" font-weight="400" font-style="normal" 
>
</g>
</g>
</svg>
